<?xml version="1.0" encoding="UTF-8"?>
<svg version="1.1" xmlns="http://www.w3.org/2000/svg" width="64" height="64">
<path d="M0,0 L5,0 L4,13 L-3,55 L-5,60 L-11,59 L-26,53 L-34,61 L-36,64 L-41,64 L-42,46 L-59,39 L-59,34 L-34,20 L-17,10 Z M-3,8 L-27,22 L-49,35 L-50,37 L-42,40 L-37,39 L-18,25 L-9,19 L-25,45 L-25,47 L-9,53 L-6,40 L-1,8 Z " fill="#303030" transform="translate(59,0)"/>
<path d="M0,0 L1,0 L1,12 L4,12 L2,29 L1,34 L0,34 L0,27 L1,23 L-3,24 L-2,12 Z " fill="#595959" transform="translate(56,15)"/>
<path d="M0,0 L2,0 L2,7 L5,8 L4,18 L1,21 L-1,21 Z " fill="#454545" transform="translate(57,7)"/>
<path d="M0,0 L3,1 L3,13 L0,16 L-2,14 L-1,2 Z " fill="#212121" transform="translate(54,37)"/>
<path d="M0,0 L1,0 L1,13 L0,18 L-1,18 L-1,11 L0,7 L-3,6 L-2,2 Z " fill="#404040" transform="translate(57,31)"/>
<path d="M0,0 L1,0 L1,7 L-3,8 L-3,2 Z " fill="#222222" transform="translate(59,20)"/>
<path d="M0,0 L1,0 L1,7 L-1,9 L-3,7 L-3,2 Z " fill="#232323" transform="translate(61,8)"/>
<path d="M0,0 L2,1 L-2,7 L-3,5 L-5,4 Z " fill="#686868" transform="translate(49,18)"/>
</svg>
