<?xml version="1.0" standalone="no"?>
<!DOCTYPE svg PUBLIC "-//W3C//DTD SVG 20010904//EN"
 "http://www.w3.org/TR/2001/REC-SVG-20010904/DTD/svg10.dtd">
<svg version="1.0" xmlns="http://www.w3.org/2000/svg"
 width="64.000000pt" height="64.000000pt" viewBox="0 0 64.000000 64.000000"
 preserveAspectRatio="xMidYMid meet">

<g transform="translate(0.000000,64.000000) scale(0.100000,-0.100000)"
fill="#000000" stroke="none">
<path d="M330 474 c-353 -205 -334 -192 -321 -208 6 -7 43 -25 83 -41 40 -15
79 -32 85 -38 9 -6 13 -38 13 -93 0 -45 4 -85 8 -88 5 -3 37 23 71 58 l62 63
99 -41 c55 -22 102 -37 105 -34 14 14 99 568 89 578 -6 6 -103 -44 -294 -156z
m255 74 c-3 -13 -20 -117 -39 -232 -19 -114 -37 -210 -40 -213 -4 -5 -155 55
-169 67 -5 4 26 63 67 131 41 68 73 125 71 127 -2 2 -64 -42 -138 -97 -74 -56
-140 -101 -145 -101 -15 0 -112 42 -112 49 0 8 481 289 498 290 8 1 11 -7 7
-21z"/>
</g>
</svg>
